<?xml version="1.0" encoding="utf-8"?>
<!-- Generator: Adobe Illustrator 27.5.0, SVG Export Plug-In . SVG Version: 6.00 Build 0)  -->
<svg version="1.1" xmlns="http://www.w3.org/2000/svg" xmlns:xlink="http://www.w3.org/1999/xlink" x="0px" y="0px"
	 viewBox="0 0 499.999 500" style="enable-background:new 0 0 499.999 500;" xml:space="preserve">
<g id="BACKGROUND">
	<rect y="0.001" style="fill:#FFFFFF;" width="499.999" height="500"/>
	<g>
		<g>
			<path style="fill:#BFEDC1;" d="M87.835,257.977c-3.543-62.002,140.049-47.403,127.796,55.976
				c-6.107,51.521,14.757,82.861-12.045,93.333c0,0-101.651,0.028-116.892-5.246c-30.382-10.514-60.149-41.515-46.214-73.404
				S91.378,319.979,87.835,257.977z"/>
			<g>
				<g>
					<path style="fill:#FFFFFF;" d="M170.199,380.066c-4.84,0.063-9.656-0.16-14.464-0.483c-4.795-0.465-9.574-1.052-14.338-1.74
						c-9.525-1.385-19-3.139-28.36-5.419c-9.355-2.278-18.626-5.023-27.552-8.742c-4.459-1.861-8.827-3.977-12.981-6.5
						c-3.982-2.773-7.778-5.927-10.673-9.787c3.452,3.358,7.419,6.031,11.613,8.243c4.049,2.456,8.361,4.493,12.761,6.304
						c8.816,3.611,18.019,6.277,27.313,8.478c9.299,2.204,18.724,3.889,28.193,5.206c4.736,0.654,9.485,1.207,14.242,1.639
						c4.743,0.566,9.505,1.032,14.259,1.215L170.199,380.066z"/>
				</g>
				<g>
					<path style="fill:#FFFFFF;" d="M137.64,244.971c1.468,2.877,2.84,5.802,4.167,8.747c1.335,2.942,2.632,5.903,3.893,8.88
						c2.262,6.051,4.424,12.139,6.452,18.272c4.069,12.262,7.637,24.695,10.626,37.273c2.976,12.58,5.346,25.316,6.866,38.175
						c0.751,6.43,1.243,12.892,1.528,19.367c0.082,6.484-0.113,12.967-0.613,19.426l-1.583-0.103
						c0.249-6.416,0.196-12.835-0.13-19.24c-0.253-6.409-0.71-12.813-1.426-19.195c-1.449-12.762-3.746-25.431-6.648-37.959
						c-2.916-12.527-6.411-24.923-10.409-37.155c-1.997-6.117-4.106-12.198-6.356-18.227
						C142.025,257.102,139.88,251.026,137.64,244.971z"/>
				</g>
				<g>
					<path style="fill:#FFFFFF;" d="M116.519,280.573c2.118,2.527,4.154,5.1,6.256,7.624c1.86,2.691,3.762,5.354,5.675,8.007
						c3.83,5.304,7.747,10.544,11.783,15.684c4.043,5.133,8.203,10.174,12.604,14.97c2.21,2.386,4.48,4.714,6.867,6.883
						c2.297,2.254,4.737,4.394,7.446,5.965l-0.694,1.426c-3.128-1.442-5.776-3.536-8.322-5.673c-2.443-2.26-4.729-4.651-6.95-7.091
						c-4.416-4.902-8.557-10.015-12.576-15.213c-4.011-5.204-7.896-10.499-11.689-15.855c-1.9-2.676-3.767-5.374-5.631-8.075
						C119.67,286.355,118.016,283.512,116.519,280.573z"/>
				</g>
				<g>
					<path style="fill:#FFFFFF;" d="M105.801,319.631c1.252,2.296,2.433,4.614,3.62,6.927c0.942,2.409,1.92,4.803,2.9,7.196
						c1.966,4.784,3.987,9.544,6.095,14.261c2.109,4.715,4.296,9.396,6.67,13.96c1.186,2.281,2.424,4.533,3.768,6.693
						c1.227,2.207,2.574,4.448,4.268,6.051l-0.951,1.27c-2.309-1.726-3.787-3.941-5.3-6.102c-1.367-2.255-2.599-4.561-3.776-6.888
						c-2.354-4.654-4.5-9.389-6.566-14.154c-2.065-4.765-4.037-9.565-5.954-14.385l-2.838-7.245
						C107.042,324.703,106.361,322.186,105.801,319.631z"/>
				</g>
				<g>
					<path style="fill:#FFFFFF;" d="M194.686,278.579c0.118,1.807,0.16,3.621,0.151,5.434c-0.004,1.813-0.021,3.629-0.096,5.442
						c-0.39,3.6-0.878,7.189-1.457,10.763c-1.168,7.148-2.742,14.231-4.719,21.21c-1.971,6.983-4.548,13.793-7.537,20.422
						l-2.421,4.894c-0.382,0.827-0.839,1.615-1.308,2.397l-1.382,2.359l-1.467,2.306c-0.472,0.779-1.078,1.472-1.61,2.211
						l-3.306,4.348l-1.255-0.97l2.927-4.487c0.472-0.756,1.017-1.462,1.429-2.256l1.285-2.347l1.37-2.294
						c0.465-0.76,0.919-1.527,1.299-2.335l2.413-4.777c2.985-6.483,5.582-13.168,7.585-20.048
						c2.008-6.875,3.624-13.871,4.839-20.942c0.597-3.536,1.129-7.086,1.518-10.652
						C193.649,285.724,194.169,282.164,194.686,278.579z"/>
				</g>
			</g>
		</g>
		<g>
			<path style="fill:#BFEDC1;" d="M408.254,245.817c3.815-66.766-150.81-51.046-137.615,60.277
				c6.576,55.48-15.891,89.228,12.97,100.505c0,0,109.462,0.03,125.874-5.649c32.717-11.322,64.771-44.705,49.764-79.044
				C444.241,287.567,404.439,312.583,408.254,245.817z"/>
			<g>
				<g>
					<path style="fill:#FFFFFF;" d="M319.55,375.578c5.118-0.229,10.247-0.697,15.355-1.308c5.122-0.465,10.237-1.061,15.336-1.765
						c10.197-1.418,20.346-3.233,30.359-5.606c10.007-2.371,19.918-5.241,29.411-9.13c4.738-1.95,9.381-4.144,13.741-6.788
						c4.516-2.382,8.787-5.259,12.505-8.876c-0.832,0.982-1.596,2.051-2.505,2.982c-0.917,0.92-1.803,1.891-2.807,2.724
						l-1.472,1.298c-0.499,0.423-1.026,0.808-1.539,1.215l-1.555,1.204l-1.615,1.116c-4.473,2.717-9.177,4.995-13.978,7
						c-9.612,4.005-19.596,6.961-29.67,9.414c-10.079,2.454-20.281,4.344-30.539,5.835c-5.13,0.741-10.276,1.373-15.44,1.874
						c-5.178,0.347-10.362,0.621-15.576,0.52L319.55,375.578z"/>
				</g>
				<g>
					<path style="fill:#FFFFFF;" d="M354.623,231.811c-2.412,6.52-4.721,13.063-6.856,19.664
						c-2.423,6.492-4.694,13.041-6.844,19.627c-4.305,13.173-8.068,26.521-11.208,40.01c-3.126,13.491-5.599,27.133-7.159,40.876
						c-0.771,6.872-1.263,13.768-1.536,20.669c-0.352,6.898-0.408,13.81-0.14,20.719l-1.704,0.111
						c-0.538-6.955-0.748-13.937-0.66-20.919c0.307-6.972,0.837-13.93,1.645-20.855c1.636-13.847,4.189-27.562,7.394-41.108
						c3.219-13.545,7.06-26.932,11.442-40.137c2.184-6.605,4.512-13.161,6.948-19.676c1.357-3.206,2.755-6.394,4.192-9.562
						C351.564,238.059,353.042,234.909,354.623,231.811z"/>
				</g>
				<g>
					<path style="fill:#FFFFFF;" d="M377.366,270.149c-1.615,3.163-3.364,6.246-5.135,9.316c-2.006,2.908-4.017,5.814-6.063,8.696
						c-4.085,5.767-8.268,11.469-12.588,17.073c-4.328,5.597-8.787,11.103-13.543,16.382c-2.391,2.628-4.853,5.202-7.484,7.636
						c-2.741,2.3-5.593,4.556-8.961,6.109l-0.748-1.536c2.917-1.691,5.544-3.996,8.018-6.423c2.571-2.335,5.015-4.842,7.395-7.412
						c4.739-5.165,9.219-10.594,13.572-16.121c4.346-5.535,8.565-11.177,12.689-16.889c2.06-2.857,4.108-5.724,6.111-8.622
						C372.865,275.621,375.089,272.872,377.366,270.149z"/>
				</g>
				<g>
					<path style="fill:#FFFFFF;" d="M388.909,312.208c-0.604,2.752-1.336,5.462-2.085,8.167l-3.056,7.801
						c-2.064,5.191-4.189,10.359-6.412,15.491c-2.225,5.131-4.535,10.229-7.071,15.241c-1.267,2.506-2.594,4.989-4.066,7.417
						c-1.628,2.326-3.221,4.712-5.707,6.571l-1.024-1.367c1.824-1.726,3.275-4.14,4.596-6.516c1.447-2.326,2.78-4.751,4.057-7.207
						c2.557-4.914,4.912-9.955,7.183-15.032c2.27-5.079,4.446-10.206,6.563-15.357c1.055-2.577,2.108-5.156,3.123-7.749
						C386.289,317.176,387.56,314.681,388.909,312.208z"/>
				</g>
				<g>
					<path style="fill:#FFFFFF;" d="M293.193,268.002c0.553,3.861,1.151,7.691,1.876,11.498c0.419,3.84,0.992,7.662,1.635,11.47
						c1.309,7.613,3.049,15.147,5.211,22.551c2.157,7.409,4.953,14.607,8.167,21.589l2.598,5.145c0.41,0.87,0.898,1.696,1.399,2.514
						l1.475,2.47l1.384,2.527c0.444,0.855,1.03,1.616,1.539,2.43l3.152,4.832l-1.351,1.045l-3.56-4.682
						c-0.573-0.796-1.226-1.543-1.734-2.381l-1.579-2.483l-1.488-2.541c-0.505-0.842-0.997-1.691-1.409-2.581l-2.607-5.27
						c-3.218-7.138-5.993-14.472-8.116-21.991c-2.128-7.515-3.823-15.142-5.081-22.839c-0.624-3.85-1.15-7.714-1.569-11.591
						C292.973,275.81,292.951,271.896,293.193,268.002z"/>
				</g>
			</g>
		</g>
	</g>
	<g>
		<g>
			<g>
				<g>
					<polygon style="fill:#4F5D75;" points="117.457,91.6 105.555,107.235 105.156,106.955 115.82,90.451 					"/>
					<polygon style="fill:#4F5D75;" points="104.068,109.19 101.72,112.274 103.824,109.018 					"/>
				</g>
			</g>
			<g>
				<g>
					<polygon style="fill:#4F5D75;" points="101.107,85.074 99.749,95.702 98.579,95.598 99.114,84.897 					"/>
					<polygon style="fill:#4F5D75;" points="99.438,98.139 98.963,101.858 98.268,101.797 98.456,98.051 					"/>
					<polygon style="fill:#4F5D75;" points="98.341,106.731 97.815,110.847 98.023,106.703 					"/>
				</g>
			</g>
			<g>
				<g>
					<polygon style="fill:#4F5D75;" points="83.684,87.598 87.823,97.481 86.757,97.976 81.87,88.441 					"/>
					<polygon style="fill:#4F5D75;" points="88.771,99.747 91.875,107.159 91.542,107.314 87.877,100.162 					"/>
				</g>
			</g>
			<g>
				<g>
					<polygon style="fill:#4F5D75;" points="69.858,98.495 85.493,110.397 85.213,110.796 68.708,100.132 					"/>
					<polygon style="fill:#4F5D75;" points="87.447,111.884 90.532,114.232 87.276,112.129 					"/>
				</g>
			</g>
			<g>
				<g>
					<polygon style="fill:#4F5D75;" points="63.332,114.846 73.96,116.203 73.856,117.374 63.155,116.838 					"/>
					<polygon style="fill:#4F5D75;" points="76.397,116.514 84.368,117.532 84.335,117.898 76.309,117.496 					"/>
				</g>
			</g>
			<g>
				<g>
					<polygon style="fill:#4F5D75;" points="65.856,132.268 83.981,124.678 84.186,125.12 66.699,134.082 					"/>
					<polygon style="fill:#4F5D75;" points="86.246,123.729 89.822,122.232 86.372,124 					"/>
				</g>
			</g>
			<g>
				<g>
					<polygon style="fill:#4F5D75;" points="76.753,146.095 83.243,137.569 84.204,138.245 78.39,147.244 					"/>
					<polygon style="fill:#4F5D75;" points="84.73,135.615 87.002,132.631 87.572,133.032 85.537,136.181 					"/>
					<polygon style="fill:#4F5D75;" points="89.977,128.722 92.49,125.42 90.238,128.906 					"/>
				</g>
			</g>
			<g>
				<g>
					<polygon style="fill:#4F5D75;" points="93.103,152.62 95.593,133.129 96.078,133.172 95.096,152.797 					"/>
					<polygon style="fill:#4F5D75;" points="95.904,130.692 96.395,126.847 96.201,130.719 					"/>
				</g>
			</g>
			<g>
				<g>
					<polygon style="fill:#4F5D75;" points="110.526,150.096 106.388,140.213 107.453,139.718 112.34,149.253 					"/>
					<polygon style="fill:#4F5D75;" points="105.439,137.948 102.335,130.536 102.668,130.381 106.333,137.532 					"/>
				</g>
			</g>
			<g>
				<g>
					<polygon style="fill:#4F5D75;" points="124.352,139.199 115.827,132.71 116.502,131.748 125.502,137.562 					"/>
					<polygon style="fill:#4F5D75;" points="113.873,131.222 110.889,128.951 111.289,128.38 114.439,130.415 					"/>
					<polygon style="fill:#4F5D75;" points="106.98,125.975 103.678,123.462 107.163,125.714 					"/>
				</g>
			</g>
			<g>
				<g>
					<polygon style="fill:#4F5D75;" points="130.878,122.849 111.386,120.359 111.43,119.874 131.055,120.856 					"/>
					<polygon style="fill:#4F5D75;" points="108.95,120.048 105.105,119.557 108.976,119.751 					"/>
				</g>
			</g>
			<g>
				<g>
					<polygon style="fill:#4F5D75;" points="128.354,105.426 118.471,109.565 117.976,108.499 127.511,103.613 					"/>
					<polygon style="fill:#4F5D75;" points="116.206,110.513 108.794,113.617 108.639,113.284 115.79,109.619 					"/>
				</g>
			</g>
		</g>
		<g>
			<g>
				<g>
					<polygon style="fill:#4F5D75;" points="384.999,129.725 375.958,136.092 375.791,135.873 384.316,128.83 					"/>
					<polygon style="fill:#4F5D75;" points="374.828,136.887 373.044,138.143 374.726,136.754 					"/>
				</g>
			</g>
			<g>
				<g>
					<polygon style="fill:#4F5D75;" points="377.335,123.446 374.802,128.918 374.191,128.663 376.296,123.013 					"/>
					<polygon style="fill:#4F5D75;" points="374.221,130.172 373.334,132.087 372.972,131.936 373.709,129.958 					"/>
					<polygon style="fill:#4F5D75;" points="372.173,134.596 371.192,136.714 372.007,134.527 					"/>
				</g>
			</g>
			<g>
				<g>
					<polygon style="fill:#4F5D75;" points="367.559,121.841 368.101,127.846 367.445,127.931 366.443,121.985 					"/>
					<polygon style="fill:#4F5D75;" points="368.225,129.223 368.631,133.727 368.426,133.753 367.675,129.294 					"/>
				</g>
			</g>
			<g>
				<g>
					<polygon style="fill:#4F5D75;" points="358.29,125.339 364.657,134.38 364.439,134.546 357.396,126.022 					"/>
					<polygon style="fill:#4F5D75;" points="365.453,135.51 366.709,137.294 365.32,135.612 					"/>
				</g>
			</g>
			<g>
				<g>
					<polygon style="fill:#4F5D75;" points="352.012,133.003 357.484,135.536 357.229,136.146 351.579,134.041 					"/>
					<polygon style="fill:#4F5D75;" points="358.738,136.117 362.841,138.017 362.762,138.208 358.524,136.629 					"/>
				</g>
			</g>
			<g>
				<g>
					<polygon style="fill:#4F5D75;" points="350.407,142.779 361.42,141.785 361.455,142.057 350.551,143.895 					"/>
					<polygon style="fill:#4F5D75;" points="362.797,141.661 364.969,141.465 362.818,141.827 					"/>
				</g>
			</g>
			<g>
				<g>
					<polygon style="fill:#4F5D75;" points="353.905,152.047 358.835,148.576 359.236,149.101 354.588,152.942 					"/>
					<polygon style="fill:#4F5D75;" points="359.965,147.78 361.69,146.565 361.928,146.877 360.301,148.221 					"/>
					<polygon style="fill:#4F5D75;" points="363.95,144.973 365.859,143.629 364.059,145.116 					"/>
				</g>
			</g>
			<g>
				<g>
					<polygon style="fill:#4F5D75;" points="361.568,158.326 366.215,148.291 366.468,148.397 362.607,158.759 					"/>
					<polygon style="fill:#4F5D75;" points="366.795,147.037 367.712,145.057 366.95,147.102 					"/>
				</g>
			</g>
			<g>
				<g>
					<polygon style="fill:#4F5D75;" points="371.344,159.931 370.803,153.926 371.459,153.841 372.46,159.786 					"/>
					<polygon style="fill:#4F5D75;" points="370.678,152.549 370.272,148.045 370.477,148.019 371.229,152.478 					"/>
				</g>
			</g>
			<g>
				<g>
					<polygon style="fill:#4F5D75;" points="380.613,156.433 377.141,151.503 377.667,151.102 381.508,155.75 					"/>
					<polygon style="fill:#4F5D75;" points="376.346,150.373 375.131,148.648 375.443,148.41 376.787,150.036 					"/>
					<polygon style="fill:#4F5D75;" points="373.539,146.387 372.194,144.478 373.682,146.278 					"/>
				</g>
			</g>
			<g>
				<g>
					<polygon style="fill:#4F5D75;" points="386.891,148.769 376.857,144.123 376.962,143.87 387.324,147.731 					"/>
					<polygon style="fill:#4F5D75;" points="375.603,143.542 373.623,142.626 375.667,143.387 					"/>
				</g>
			</g>
			<g>
				<g>
					<polygon style="fill:#4F5D75;" points="388.496,138.993 382.491,139.535 382.407,138.879 388.352,137.877 					"/>
					<polygon style="fill:#4F5D75;" points="381.115,139.659 376.611,140.066 376.585,139.86 381.044,139.109 					"/>
				</g>
			</g>
		</g>
		<g>
			<g>
				<g>
					<polygon style="fill:#4F5D75;" points="76.255,167.998 77.182,177.665 76.943,177.697 75.275,168.13 					"/>
					<polygon style="fill:#4F5D75;" points="77.298,178.873 77.481,180.78 77.152,178.893 					"/>
				</g>
			</g>
			<g>
				<g>
					<polygon style="fill:#4F5D75;" points="68.132,171.116 71.206,175.428 70.746,175.783 67.35,171.72 					"/>
					<polygon style="fill:#4F5D75;" points="71.91,176.416 72.986,177.926 72.713,178.136 71.525,176.714 					"/>
					<polygon style="fill:#4F5D75;" points="74.395,179.903 75.585,181.573 74.27,179.999 					"/>
				</g>
			</g>
			<g>
				<g>
					<polygon style="fill:#4F5D75;" points="62.657,177.878 67.475,180.075 67.254,180.613 62.281,178.792 					"/>
					<polygon style="fill:#4F5D75;" points="68.579,180.579 72.192,182.227 72.123,182.395 68.394,181.03 					"/>
				</g>
			</g>
			<g>
				<g>
					<polygon style="fill:#4F5D75;" points="61.296,186.471 70.963,185.544 70.995,185.782 61.428,187.451 					"/>
					<polygon style="fill:#4F5D75;" points="72.171,185.428 74.078,185.245 72.191,185.574 					"/>
				</g>
			</g>
			<g>
				<g>
					<polygon style="fill:#4F5D75;" points="64.414,194.594 68.726,191.52 69.081,191.98 65.018,195.376 					"/>
					<polygon style="fill:#4F5D75;" points="69.715,190.816 72.948,188.51 73.06,188.654 70.012,191.201 					"/>
				</g>
			</g>
			<g>
				<g>
					<polygon style="fill:#4F5D75;" points="71.175,200.069 75.206,191.234 75.429,191.325 72.09,200.444 					"/>
					<polygon style="fill:#4F5D75;" points="75.71,190.129 76.505,188.386 75.846,190.185 					"/>
				</g>
			</g>
			<g>
				<g>
					<polygon style="fill:#4F5D75;" points="79.769,201.43 79.263,196.159 79.839,196.081 80.749,201.298 					"/>
					<polygon style="fill:#4F5D75;" points="79.147,194.951 78.97,193.106 79.312,193.06 79.63,194.885 					"/>
					<polygon style="fill:#4F5D75;" points="78.739,190.689 78.543,188.648 78.895,190.668 					"/>
				</g>
			</g>
			<g>
				<g>
					<polygon style="fill:#4F5D75;" points="87.892,198.312 82.255,190.404 82.446,190.257 88.674,197.708 					"/>
					<polygon style="fill:#4F5D75;" points="81.55,189.415 80.439,187.855 81.667,189.325 					"/>
				</g>
			</g>
			<g>
				<g>
					<polygon style="fill:#4F5D75;" points="93.367,191.55 88.549,189.353 88.77,188.815 93.742,190.636 					"/>
					<polygon style="fill:#4F5D75;" points="87.445,188.849 83.832,187.201 83.901,187.033 87.63,188.398 					"/>
				</g>
			</g>
			<g>
				<g>
					<polygon style="fill:#4F5D75;" points="94.728,182.957 89.457,183.463 89.379,182.887 94.596,181.977 					"/>
					<polygon style="fill:#4F5D75;" points="88.249,183.579 86.404,183.755 86.358,183.414 88.183,183.096 					"/>
					<polygon style="fill:#4F5D75;" points="83.987,183.987 81.946,184.183 83.966,183.831 					"/>
				</g>
			</g>
			<g>
				<g>
					<polygon style="fill:#4F5D75;" points="91.61,174.834 83.702,180.471 83.555,180.28 91.006,174.052 					"/>
					<polygon style="fill:#4F5D75;" points="82.713,181.175 81.153,182.287 82.623,181.059 					"/>
				</g>
			</g>
			<g>
				<g>
					<polygon style="fill:#4F5D75;" points="84.848,169.359 82.651,174.176 82.113,173.956 83.934,168.984 					"/>
					<polygon style="fill:#4F5D75;" points="82.147,175.281 80.499,178.894 80.331,178.825 81.696,175.096 					"/>
				</g>
			</g>
		</g>
	</g>
</g>
<g id="OBJECTS">
	<g>
		<g>
			<g>
				<rect x="410.355" y="394.358" style="fill:#2D3142;" width="19.226" height="12.186"/>
				<rect x="383.52" y="394.358" style="fill:#2D3142;" width="19.226" height="12.186"/>
				<polygon style="fill:#2D3142;" points="381.389,264.039 381.389,266.927 380.828,266.927 380.828,395.095 405.438,395.095 
					405.438,290.818 407.663,290.818 407.663,395.095 432.273,395.095 432.273,290.818 432.273,266.927 432.273,264.039 				"/>
			</g>
			<g>
				<path style="fill:#4F5D75;" d="M436.769,293.104c-7.298-16.247-30.357-22.851-30.357-22.851s-3.558,15.006-8.119,20.565
					c-5.897,7.188-13.47,5.382-17.195,5.715c-5.916,0.529-0.354-39.498-0.354-39.498l-4.116-49.508l31.192-15.101l30.052,15.101
					l-5.325,49.94C432.547,257.467,439.427,299.022,436.769,293.104z"/>
				<rect x="400.299" y="181.534" style="fill:#F7A98D;" width="13.9" height="21.784"/>
				<path style="fill:#E3E3E3;" d="M397.942,196.34c2.55-2.599,9.306,7.117,9.306,7.117s8.348-8.136,10.806-6.219
					c7.811,6.092-10.806,39.281-10.806,39.281S390.9,203.518,397.942,196.34z"/>
				<g>
					<polygon style="fill:#EF8354;" points="406.427,206.244 403.389,228.14 407.248,236.52 411.141,228.454 408.312,206.244 					
						"/>
					<path style="fill:#EF8354;" d="M409.988,206.244c0,1.539-0.773,2.787-2.74,2.787c-1.967,0-2.74-1.248-2.74-2.787
						c0-1.539,0.773-2.787,2.74-2.787C409.215,203.457,409.988,204.705,409.988,206.244z"/>
				</g>
				<path style="fill:#677A99;" d="M425.894,203.457l-5.254,4.151l3.007,6.285l-16.398,22.626c0,0,7.585-18.77,9.758-25.251
					c2.619-7.811-2.807-18.005-2.807-18.005L425.894,203.457z"/>
				<path style="fill:#677A99;" d="M388.619,203.457l5.254,4.151l-3.007,6.285l16.398,22.626c0,0-7.585-18.77-9.758-25.251
					c-2.619-7.811,2.793-18.005,2.793-18.005L388.619,203.457z"/>
				<path style="fill:#FFFFFF;" d="M406.561,202.902c0,0-2.655,6.556-3.604,5.273c-8.617-11.653-2.658-14.912-2.658-14.912
					L406.561,202.902z"/>
				<path style="fill:#FFFFFF;" d="M407.968,202.902c0,0,2.655,6.556,3.604,5.273c8.617-11.653,2.628-14.912,2.628-14.912
					L407.968,202.902z"/>
				<path style="fill:#4F5D75;" d="M330.373,237.983l5.055-11.424l23.877,7.676l17.322-26.708l4.762,24.317l-15.012,16.714
					c-1.882,2.096-4.89,2.759-7.479,1.649L330.373,237.983z"/>
				<ellipse style="fill:#677A99;" cx="409.425" cy="253.386" rx="1.544" ry="1.757"/>
				<g>
					<path style="fill:#677A99;" d="M407.263,236.52c0.025,1.326-0.031,2.639-0.051,3.959l-0.561,3.886l-1.115,7.772l0.004-0.11
						l0.689,9.094l0.344,4.547c-0.056,1.529-0.071,3.054-0.162,4.585c-0.32-1.5-0.565-3.006-0.851-4.509l-0.344-4.547l-0.689-9.094
						l-0.004-0.056l0.008-0.055l1.115-7.772l0.553-3.887C406.551,239.062,406.866,237.785,407.263,236.52z"/>
				</g>
				<g>
					<path style="fill:#677A99;" d="M381.285,272.683l11.543-6.059l0.374-0.196l0.105,0.423l1.027,4.135l0.076,0.307l-0.293,0.156
						c-1.884,1.002-3.758,2.025-5.662,2.986c-0.955,0.476-1.912,0.947-2.884,1.389c-0.971,0.444-1.928,0.916-2.912,1.333
						l-0.39,0.165l-0.089-0.375C381.833,275.474,381.547,274.021,381.285,272.683z M381.378,272.724
						c0.521,1.43,1.018,2.745,1.454,4.04l-0.478-0.21c0.919-0.546,1.866-1.037,2.8-1.556c0.932-0.521,1.879-1.012,2.828-1.499
						c1.903-0.964,3.838-1.867,5.761-2.79l-0.217,0.463l-0.877-4.169l0.479,0.227L381.378,272.724z"/>
				</g>
				<g>
					<path style="fill:#677A99;" d="M433.34,272.724l-11.75-5.495l0.479-0.227l-0.877,4.169l-0.217-0.463
						c1.924,0.924,3.858,1.826,5.761,2.79c0.949,0.487,1.896,0.978,2.828,1.499c0.933,0.518,1.88,1.01,2.8,1.556l-0.478,0.21
						C432.321,275.47,432.819,274.155,433.34,272.724z M433.433,272.683c-0.262,1.338-0.548,2.791-0.896,4.265l-0.089,0.375
						l-0.39-0.165c-0.985-0.417-1.941-0.888-2.912-1.333c-0.972-0.442-1.929-0.913-2.884-1.389
						c-1.905-0.961-3.778-1.985-5.662-2.986l-0.293-0.156l0.076-0.307l1.027-4.135l0.105-0.423l0.374,0.196L433.433,272.683z"/>
				</g>
				<g>
					<path style="fill:#F7BFAA;" d="M435.058,286.055c0,0-2.37,5.662-4.105,6.268c-2.317,0.809-5.602-4.512-6.041-6.914
						c-0.328-1.798,2.183-4.568,2.183-4.568L435.058,286.055z"/>
					<path style="fill:#4F5D75;" d="M432.672,291.253l-7.724-8.422l11.852-27.164l-7.472-34.594l8.544-13.545l14.384,44.102
						c1.673,2.266,1.716,5.346,0.106,7.659L432.672,291.253z"/>
				</g>
			</g>
			<g>
				<g>
					<g>
						<path style="fill:#F7BFAA;" d="M421.366,172.945c0,10.688-6.32,22.875-14.116,22.875s-14.116-12.186-14.116-22.875
							s6.32-15.831,14.116-15.831S421.366,162.257,421.366,172.945z"/>
						<g>
							<path style="fill:#2D3142;" d="M421.835,166.556c0,4.987-6.524,2.407-14.572,2.407c-8.048,0-14.573,2.58-14.573-2.407
								c0-4.987,6.524-11.965,14.573-11.965C415.311,154.591,421.835,161.569,421.835,166.556z"/>
							<ellipse style="fill:#2D3142;" cx="393.471" cy="171.42" rx="2.198" ry="7.799"/>
							<ellipse style="fill:#2D3142;" cx="421.25" cy="171.42" rx="2.087" ry="7.799"/>
						</g>
					</g>
					<g>
						<path style="fill:#FFFFFF;" d="M412.692,185.996c0,1.57-2.408,4.874-5.378,4.874c-2.97,0-5.378-3.304-5.378-4.874
							c0-1.57,2.408-0.812,5.378-0.812C410.284,185.183,412.692,184.425,412.692,185.996z"/>
						<ellipse style="fill:#2D3142;" cx="400.561" cy="175.936" rx="1.125" ry="2.125"/>
						<ellipse style="fill:#2D3142;" cx="414.067" cy="175.936" rx="1.125" ry="2.125"/>
						<path style="fill:#EF8354;" d="M409.027,179.058c0,2.016-0.767,3.65-1.713,3.65c-0.946,0-1.713-1.634-1.713-3.65
							c0-2.016,0.767-3.65,1.713-3.65C408.26,175.409,409.027,177.043,409.027,179.058z"/>
					</g>
				</g>
				<g>
					<path style="fill:#F7BFAA;" d="M394.924,178.332c0.526,2.265,1.331,4.013,0.083,4.303c-1.249,0.29-4.079-0.988-4.604-3.253
						c-0.526-2.265,1.453-4.659,2.701-4.949C394.352,174.143,394.399,176.067,394.924,178.332z"/>
					<path style="fill:#F7BFAA;" d="M419.652,178.507c-0.348,2.299-1.016,4.104,0.251,4.296c1.267,0.192,3.99-1.302,4.338-3.601
						s-1.81-4.532-3.077-4.724C419.897,174.286,420,176.208,419.652,178.507z"/>
				</g>
			</g>
		</g>
		<g>
			<polygon style="fill:#EF8354;" points="353.324,172.936 353.324,407.156 333.994,407.156 333.994,172.936 340.794,170.256 
				343.654,169.126 346.294,170.166 346.524,170.256 			"/>
			<rect x="333.994" y="390.383" style="fill:#4F5D75;" width="19.33" height="16.773"/>
			<rect x="333.994" y="395.216" style="fill:#FFFFFF;" width="19.33" height="3.553"/>
			<rect x="340.793" y="168.321" style="opacity:0.18;fill:#FFFFFF;" width="5.73" height="238.833"/>
			<polygon style="fill:#F7BFAA;" points="353.324,172.376 353.324,175.906 353.214,176.046 350.024,172.046 346.824,176.046 
				346.524,175.666 343.634,172.046 340.794,175.606 340.444,176.046 337.244,172.046 334.064,176.046 333.994,175.956 
				333.994,172.376 340.794,150.216 343.654,140.886 346.524,150.216 			"/>
			<polygon style="fill:#EF8354;" points="346.524,150.216 340.793,150.216 343.654,140.886 			"/>
			<polygon style="opacity:0.7;fill:#2D3142;" points="353.324,172.376 353.324,407.156 346.824,407.156 346.824,176.046 
				346.524,172.716 346.294,170.166 346.124,168.326 343.654,140.886 346.524,150.216 			"/>
		</g>
		
			<rect x="329.661" y="224.015" transform="matrix(0.8936 0.4489 -0.4489 0.8936 139.881 -125.2073)" style="fill:#F7BFAA;" width="8.667" height="16.762"/>
	</g>
	<g>
		<path style="fill:#4F5D75;" d="M311.452,407.156H117.715c-6.38,0-11.551-5.172-11.551-11.551V135.068
			c0-6.379,5.172-11.551,11.551-11.551h193.737c6.379,0,11.551,5.172,11.551,11.551v260.537
			C323.003,401.984,317.831,407.156,311.452,407.156z"/>
		<rect x="117.943" y="138.839" style="fill:#FFFFFF;" width="192" height="253"/>
		<g>
			<g>
				
					<line style="fill:none;stroke:#4F5D75;stroke-width:2;stroke-miterlimit:10;" x1="145.277" y1="177.708" x2="246.181" y2="177.708"/>
				
					<line style="fill:none;stroke:#4F5D75;stroke-width:2;stroke-miterlimit:10;" x1="145.277" y1="185.04" x2="246.181" y2="185.04"/>
				
					<line style="fill:none;stroke:#4F5D75;stroke-width:2;stroke-miterlimit:10;" x1="145.277" y1="192.032" x2="206.86" y2="192.032"/>
			</g>
			<g>
				
					<line style="fill:none;stroke:#4F5D75;stroke-width:2;stroke-miterlimit:10;" x1="145.277" y1="291.02" x2="246.181" y2="291.02"/>
				
					<line style="fill:none;stroke:#4F5D75;stroke-width:2;stroke-miterlimit:10;" x1="145.277" y1="298.352" x2="246.181" y2="298.352"/>
				
					<line style="fill:none;stroke:#4F5D75;stroke-width:2;stroke-miterlimit:10;" x1="145.277" y1="305.344" x2="234.448" y2="305.344"/>
			</g>
			<g>
				
					<line style="fill:none;stroke:#4F5D75;stroke-width:2;stroke-miterlimit:10;" x1="145.277" y1="237.343" x2="246.181" y2="237.343"/>
				
					<line style="fill:none;stroke:#4F5D75;stroke-width:2;stroke-miterlimit:10;" x1="145.277" y1="244.675" x2="229.36" y2="244.675"/>
			</g>
			<g>
				
					<line style="fill:none;stroke:#4F5D75;stroke-width:2;stroke-miterlimit:10;" x1="145.277" y1="353.668" x2="246.181" y2="353.668"/>
				<line style="fill:none;stroke:#4F5D75;stroke-width:2;stroke-miterlimit:10;" x1="145.277" y1="361" x2="192.86" y2="361"/>
			</g>
			<rect x="258.943" y="170.669" style="fill:none;stroke:#4F5D75;stroke-width:2;stroke-miterlimit:10;" width="26" height="26"/>
			<rect x="258.943" y="228.009" style="fill:none;stroke:#4F5D75;stroke-width:2;stroke-miterlimit:10;" width="26" height="26"/>
			<rect x="258.777" y="285.182" style="fill:none;stroke:#4F5D75;stroke-width:2;stroke-miterlimit:10;" width="26" height="26"/>
			<rect x="258.943" y="342.688" style="fill:none;stroke:#4F5D75;stroke-width:2;stroke-miterlimit:10;" width="26" height="26"/>
			<g>
				<path style="fill:#EF8354;" d="M264.263,177.731c1.047,0.684,2.028,1.417,3.008,2.15l1.433,1.127l0.713,0.566
					c0.236,0.19,0.491,0.366,0.655,0.609c0.603,1.01,1.359,1.907,2.031,2.866l2.075,2.833l-3.093-0.164l13.19-14.5l6.595-7.25
					c0.542-0.611,1.117-1.193,1.631-1.828c0.21-0.361,0.591-0.566,0.949-0.792l1.073-0.68c1.424-0.913,2.899-1.78,4.421-2.603
					c-0.676,1.593-1.4,3.143-2.174,4.647l-0.576,1.132c-0.191,0.378-0.359,0.777-0.699,1.02c-0.584,0.573-1.109,1.2-1.666,1.797
					l-6.595,7.25l-13.19,14.5l-1.647,1.81l-1.446-1.974l-2.075-2.833c-0.712-0.93-1.339-1.921-2.12-2.801
					c-0.182-0.229-0.272-0.526-0.383-0.808l-0.324-0.851l-0.643-1.706C265.002,180.092,264.599,178.935,264.263,177.731z"/>
			</g>
			<g>
				<path style="fill:#EF8354;" d="M264.263,235.342c1.047,0.684,2.028,1.417,3.008,2.15l1.433,1.127l0.713,0.566
					c0.236,0.19,0.491,0.366,0.655,0.608c0.603,1.01,1.359,1.907,2.031,2.866l2.075,2.833l-3.093-0.164l13.19-14.5l6.595-7.25
					c0.542-0.611,1.117-1.193,1.631-1.828c0.21-0.361,0.591-0.566,0.949-0.792l1.073-0.68c1.424-0.913,2.899-1.779,4.421-2.603
					c-0.676,1.593-1.4,3.143-2.174,4.647l-0.576,1.132c-0.191,0.378-0.359,0.777-0.699,1.02c-0.584,0.573-1.109,1.199-1.666,1.797
					l-6.595,7.25l-13.19,14.5l-1.647,1.811l-1.446-1.975l-2.075-2.833c-0.712-0.93-1.339-1.921-2.12-2.801
					c-0.182-0.229-0.272-0.526-0.383-0.808l-0.324-0.851l-0.643-1.706C265.002,237.703,264.599,236.547,264.263,235.342z"/>
			</g>
			<g>
				<path style="fill:#EF8354;" d="M264.263,292.954c1.047,0.684,2.028,1.417,3.008,2.15l1.433,1.127l0.713,0.566
					c0.236,0.19,0.491,0.366,0.655,0.608c0.603,1.01,1.359,1.907,2.031,2.866l2.075,2.833l-3.093-0.164l13.19-14.5l6.595-7.25
					c0.542-0.611,1.117-1.193,1.631-1.828c0.21-0.361,0.591-0.566,0.949-0.792l1.073-0.68c1.424-0.913,2.899-1.779,4.421-2.603
					c-0.676,1.593-1.4,3.143-2.174,4.647l-0.576,1.132c-0.191,0.378-0.359,0.777-0.699,1.02c-0.584,0.573-1.109,1.2-1.666,1.797
					l-6.595,7.25l-13.19,14.5l-1.647,1.81l-1.446-1.975l-2.075-2.833c-0.712-0.93-1.339-1.921-2.12-2.801
					c-0.182-0.229-0.272-0.526-0.383-0.808l-0.324-0.851l-0.643-1.706C265.002,295.315,264.599,294.159,264.263,292.954z"/>
			</g>
			<g>
				<path style="fill:#EF8354;" d="M264.263,350.566c1.047,0.684,2.028,1.417,3.008,2.15l1.433,1.127l0.713,0.566
					c0.236,0.19,0.491,0.366,0.655,0.609c0.603,1.01,1.359,1.907,2.031,2.866l2.075,2.833l-3.093-0.164l13.19-14.5l6.595-7.25
					c0.542-0.611,1.117-1.193,1.631-1.828c0.21-0.361,0.591-0.566,0.949-0.792l1.073-0.68c1.424-0.913,2.899-1.779,4.421-2.603
					c-0.676,1.593-1.4,3.143-2.174,4.647l-0.576,1.132c-0.191,0.378-0.359,0.777-0.699,1.02c-0.584,0.573-1.109,1.2-1.666,1.797
					l-6.595,7.25l-13.19,14.5l-1.647,1.81l-1.446-1.975l-2.075-2.833c-0.712-0.93-1.339-1.921-2.12-2.801
					c-0.182-0.229-0.272-0.526-0.383-0.808l-0.324-0.851l-0.643-1.706C265.002,352.927,264.599,351.77,264.263,350.566z"/>
			</g>
		</g>
		<g>
			<path style="fill:#E3E3E3;" d="M280.883,142.407l-12.8-25.14h-33.7l-8.42-18h-22.76l-8.42,18h-33.7l-12.8,25.14l-2.73,5.36
				h138.06L280.883,142.407z M214.583,104.267c3.04,0,5.5,2.46,5.5,5.5c0,3.04-2.46,5.5-5.5,5.5c-3.04,0-5.5-2.46-5.5-5.5
				C209.083,106.727,211.543,104.267,214.583,104.267z"/>
			<polygon style="opacity:0.7;fill:#2D3142;" points="283.613,147.767 145.553,147.767 148.283,142.407 280.883,142.407 			"/>
		</g>
	</g>
</g>
<g id="DESIGNED_BY_FREEPIK">
	<g>
		<g id="XMLID_319_">
			<g id="XMLID_338_">
				<path id="XMLID_346_" style="fill:#1D262D;" d="M260.104,465.465c-0.433,0.443-0.804,0.932-1.108,1.453l-0.465-0.241
					c-0.067-0.297-0.35-0.502-0.659-0.466c-0.331,0.039-0.567,0.339-0.529,0.67c0.039,0.331,0.339,0.567,0.67,0.528
					c0.065-0.007,0.127-0.025,0.184-0.052l0.451,0.234c-0.251,0.554-0.433,1.139-0.539,1.743l0.747,0.132
					c0.23-1.306,0.85-2.507,1.792-3.473L260.104,465.465z"/>
				<path id="XMLID_345_" style="fill:#1D262D;" d="M265.591,463.164c-0.171,0-0.341,0.006-0.509,0.017l-0.074-0.626
					c0.188-0.149,0.296-0.389,0.266-0.645c-0.046-0.393-0.402-0.674-0.795-0.628c-0.394,0.046-0.675,0.402-0.628,0.796
					c0.03,0.254,0.189,0.461,0.404,0.563l0.073,0.624c-0.714,0.116-1.402,0.332-2.06,0.646l0.327,0.685
					c0.935-0.447,1.941-0.674,2.995-0.674c0.497,0,0.993,0.053,1.476,0.158l0.16-0.741
					C266.692,463.222,266.142,463.164,265.591,463.164z"/>
				<path id="XMLID_344_" style="fill:#1D262D;" d="M272.194,465.711c0.331-0.04,0.566-0.341,0.525-0.672
					c-0.04-0.331-0.341-0.566-0.672-0.525c-0.31,0.038-0.535,0.304-0.53,0.608l-0.416,0.363c-0.418-0.43-0.89-0.813-1.407-1.14
					l-0.404,0.642c1.135,0.715,2.021,1.727,2.564,2.925l0.69-0.313c-0.251-0.554-0.567-1.071-0.942-1.545l0.402-0.351
					C272.065,465.715,272.128,465.719,272.194,465.711z"/>
				<path id="XMLID_343_" style="fill:#1D262D;" d="M265.044,473.372c-0.386,0.023-0.775,0.035-1.157,0.035
					c-0.88,0-1.733-0.061-2.479-0.18c-0.391-0.062-0.846-0.154-1.271-0.292c1.047,1.861,3.069,3.125,5.389,3.125
					c2.855,0,5.263-1.916,5.949-4.503c-0.682,0.449-1.505,0.825-2.458,1.122C267.838,473.047,266.463,473.287,265.044,473.372z"/>
				<path id="XMLID_339_" style="fill:#1D262D;" d="M265.591,464.68c-3.351,0-6.079,2.666-6.079,5.943
					c0,0.425,0.046,0.849,0.137,1.261c0.674,0.483,2.706,0.891,5.348,0.731c2.88-0.174,5.297-0.958,6.672-2.159
					c-0.005-0.194-0.021-0.39-0.045-0.581C271.244,466.914,268.65,464.68,265.591,464.68z M263.432,471.195
					c-1.02,0-1.85-0.83-1.85-1.85c0-1.021,0.83-1.851,1.85-1.851c1.02,0,1.85,0.83,1.85,1.851
					C265.282,470.365,264.452,471.195,263.432,471.195z M268.169,470.287c-0.75,0-1.36-0.61-1.36-1.36s0.61-1.36,1.36-1.36
					s1.36,0.61,1.36,1.36S268.919,470.287,268.169,470.287z"/>
			</g>
			<path id="XMLID_336_" style="fill:#1D262D;" d="M281.595,466.547c-0.295-0.116-0.806-0.31-1.383-0.238
				c-0.551,0.069-0.844,0.341-0.844,1.007v0.866h2.229v1.717h-2.229v5.455h-1.932v-5.455h-1.339v-1.717h1.339v-0.889
				c0-1.68,0.896-2.782,2.568-2.782c0.643,0,1.157,0.121,1.59,0.308V466.547z"/>
			<path id="XMLID_334_" style="fill:#1D262D;" d="M286.297,469.878c-0.177-0.029-0.357-0.046-0.525-0.046
				c-0.896,0-1.51,0.548-1.51,1.613v3.908h-1.933v-7.172h1.873v0.784c0.451-0.673,1.14-0.977,2.021-0.977
				c0.414,0,0.848,0.128,1.095,0.337L286.297,469.878z"/>
			<path id="XMLID_331_" style="fill:#1D262D;" d="M293.965,471.757c0,0.222-0.016,0.488-0.037,0.651h-5.085
				c0.207,1.036,0.933,1.487,1.843,1.487c0.622,0,1.295-0.252,1.813-0.689l1.133,1.243c-0.814,0.748-1.851,1.089-3.057,1.089
				c-2.198,0-3.724-1.496-3.724-3.753c0-2.258,1.48-3.797,3.627-3.797C292.543,467.99,293.958,469.522,293.965,471.757z
				 M288.851,471.091h3.175c-0.178-0.918-0.732-1.437-1.562-1.437C289.554,469.655,289.021,470.203,288.851,471.091z"/>
			<path id="XMLID_328_" style="fill:#1D262D;" d="M301.619,471.757c0,0.222-0.016,0.488-0.037,0.651h-5.085
				c0.207,1.036,0.933,1.487,1.843,1.487c0.622,0,1.296-0.252,1.814-0.689l1.133,1.243c-0.815,0.748-1.851,1.089-3.058,1.089
				c-2.198,0-3.723-1.496-3.723-3.753c0-2.258,1.48-3.797,3.627-3.797C300.197,467.99,301.611,469.522,301.619,471.757z
				 M296.504,471.091h3.175c-0.178-0.918-0.733-1.437-1.561-1.437C297.208,469.655,296.674,470.203,296.504,471.091z"/>
			<path id="XMLID_325_" style="fill:#1D262D;" d="M309.964,471.764c0,2.154-1.495,3.775-3.472,3.775
				c-0.962,0-1.644-0.378-2.109-0.933v3.708h-1.925v-10.133h1.888v0.792c0.467-0.585,1.154-0.984,2.139-0.984
				C308.469,467.99,309.964,469.611,309.964,471.764z M304.287,471.764c0,1.133,0.748,1.977,1.844,1.977
				c1.14,0,1.85-0.881,1.85-1.977c0-1.095-0.71-1.976-1.85-1.976C305.035,469.789,304.287,470.632,304.287,471.764z"/>
			<path id="XMLID_322_" style="fill:#1D262D;" d="M313.068,465.836c0,0.696-0.541,1.229-1.236,1.229
				c-0.696,0-1.229-0.533-1.229-1.229c0-0.695,0.532-1.243,1.229-1.243C312.527,464.592,313.068,465.14,313.068,465.836z
				 M312.808,475.354h-1.932v-7.172h1.932V475.354z"/>
			<path id="XMLID_320_" style="fill:#1D262D;" d="M316.032,470.736l2.702-2.554h2.368l-3.478,3.375l3.501,3.797h-2.376
				l-2.717-2.901v2.901H314.1v-10.658h1.932V470.736z"/>
		</g>
		<g>
			<path style="fill:#1D262D;" d="M184.412,475.29v-1.055c-0.527,0.718-1.391,1.23-2.387,1.23c-1.846,0-3.149-1.406-3.149-3.706
				c0-2.256,1.289-3.721,3.149-3.721c0.952,0,1.816,0.469,2.387,1.245v-3.765h1.099v9.771H184.412z M184.412,473.371v-3.208
				c-0.395-0.615-1.245-1.143-2.124-1.143c-1.42,0-2.27,1.172-2.27,2.739c0,1.567,0.85,2.725,2.27,2.725
				C183.167,474.484,184.017,473.986,184.412,473.371z"/>
			<path style="fill:#1D262D;" d="M186.932,471.745c0-2.051,1.465-3.706,3.486-3.706c2.139,0,3.398,1.67,3.398,3.794v0.278h-5.727
				c0.088,1.333,1.025,2.446,2.549,2.446c0.806,0,1.626-0.322,2.182-0.894l0.527,0.718c-0.703,0.703-1.655,1.084-2.812,1.084
				C188.44,475.465,186.932,473.957,186.932,471.745z M190.403,468.947c-1.509,0-2.256,1.274-2.314,2.358h4.644
				C192.718,470.25,192.015,468.947,190.403,468.947z"/>
			<path style="fill:#1D262D;" d="M194.607,474.352l0.571-0.791c0.469,0.542,1.362,1.011,2.329,1.011c1.084,0,1.67-0.513,1.67-1.216
				c0-1.714-4.38-0.659-4.38-3.281c0-1.099,0.952-2.036,2.636-2.036c1.202,0,2.051,0.454,2.623,1.025l-0.513,0.762
				c-0.424-0.513-1.201-0.894-2.109-0.894c-0.966,0-1.567,0.483-1.567,1.113c0,1.553,4.379,0.527,4.379,3.281
				c0,1.187-0.952,2.139-2.783,2.139C196.306,475.465,195.325,475.114,194.607,474.352z"/>
			<path style="fill:#1D262D;" d="M201.477,466.471c0-0.41,0.337-0.747,0.732-0.747c0.41,0,0.747,0.337,0.747,0.747
				c0,0.41-0.337,0.732-0.747,0.732C201.814,467.204,201.477,466.881,201.477,466.471z M201.667,475.29v-7.075h1.099v7.075H201.667z
				"/>
			<path style="fill:#1D262D;" d="M204.582,477.106l0.556-0.82c0.586,0.703,1.289,0.967,2.3,0.967c1.172,0,2.271-0.571,2.271-2.124
				v-1.011c-0.513,0.718-1.377,1.26-2.373,1.26c-1.846,0-3.149-1.377-3.149-3.662c0-2.271,1.289-3.677,3.149-3.677
				c0.952,0,1.802,0.469,2.373,1.245v-1.069h1.099v6.87c0,2.344-1.641,3.076-3.369,3.076
				C206.237,478.161,205.416,477.925,204.582,477.106z M209.708,473.253v-3.091c-0.381-0.615-1.23-1.143-2.109-1.143
				c-1.421,0-2.27,1.128-2.27,2.695c0,1.553,0.849,2.695,2.27,2.695C208.478,474.411,209.328,473.869,209.708,473.253z"/>
			<path style="fill:#1D262D;" d="M217.413,475.29v-4.629c0-1.245-0.63-1.641-1.582-1.641c-0.864,0-1.685,0.527-2.094,1.099v5.171
				h-1.099v-7.075h1.099v1.025c0.497-0.586,1.464-1.201,2.519-1.201c1.479,0,2.256,0.747,2.256,2.285v4.966H217.413z"/>
			<path style="fill:#1D262D;" d="M219.932,471.745c0-2.051,1.465-3.706,3.486-3.706c2.139,0,3.398,1.67,3.398,3.794v0.278h-5.727
				c0.088,1.333,1.025,2.446,2.548,2.446c0.806,0,1.626-0.322,2.183-0.894l0.527,0.718c-0.703,0.703-1.655,1.084-2.813,1.084
				C221.441,475.465,219.932,473.957,219.932,471.745z M223.404,468.947c-1.509,0-2.256,1.274-2.314,2.358h4.643
				C225.718,470.25,225.015,468.947,223.404,468.947z"/>
			<path style="fill:#1D262D;" d="M233.35,475.29v-1.055c-0.527,0.718-1.392,1.23-2.388,1.23c-1.845,0-3.149-1.406-3.149-3.706
				c0-2.256,1.289-3.721,3.149-3.721c0.952,0,1.817,0.469,2.388,1.245v-3.765h1.098v9.771H233.35z M233.35,473.371v-3.208
				c-0.396-0.615-1.245-1.143-2.124-1.143c-1.421,0-2.27,1.172-2.27,2.739c0,1.567,0.85,2.725,2.27,2.725
				C232.105,474.484,232.954,473.986,233.35,473.371z"/>
			<path style="fill:#1D262D;" d="M239.692,475.29v-9.771h1.099v3.765c0.571-0.776,1.421-1.245,2.388-1.245
				c1.845,0,3.149,1.465,3.149,3.721c0,2.3-1.304,3.706-3.149,3.706c-0.996,0-1.86-0.513-2.388-1.23v1.055H239.692z M242.9,474.484
				c1.436,0,2.285-1.157,2.285-2.725c0-1.567-0.85-2.739-2.285-2.739c-0.864,0-1.729,0.527-2.109,1.143v3.208
				C241.171,473.986,242.036,474.484,242.9,474.484z"/>
			<path style="fill:#1D262D;" d="M247.528,477.062c0.161,0.073,0.425,0.117,0.601,0.117c0.483,0,0.806-0.161,1.055-0.747
				l0.469-1.069l-2.959-7.148h1.187l2.358,5.801l2.344-5.801h1.2l-3.544,8.511c-0.425,1.024-1.143,1.421-2.08,1.436
				c-0.234,0-0.6-0.044-0.806-0.104L247.528,477.062z"/>
		</g>
	</g>
</g>
</svg>
